<svg id="svg" version="1.1" xmlns="http://www.w3.org/2000/svg" xmlns:xlink="http://www.w3.org/1999/xlink" width="400" height="709.7744360902255" viewBox="0, 0, 400,709.7744360902255"><g id="svgg"><path id="path0" d="M3.200 354.800 L 3.200 706.400 200.000 706.400 L 396.800 706.400 396.800 354.800 L 396.800 3.200 200.000 3.200 L 3.200 3.200 3.200 354.800 " stroke="none" fill="#fcfcfc" fill-rule="evenodd"></path><path id="path1" d="M0.000 354.800 L 0.000 709.600 200.000 709.600 L 400.000 709.600 400.000 354.800 L 400.000 0.000 200.000 0.000 L 0.000 0.000 0.000 354.800 M397.000 354.800 L 397.000 706.600 200.000 706.600 L 3.000 706.600 2.900 355.241 C 2.826 95.646,2.917 3.741,3.249 3.341 C 3.626 2.886,35.359 2.815,200.349 2.900 L 397.000 3.000 397.000 354.800 " stroke="none" fill="#7c7c7c" fill-rule="evenodd"></path><path id="path2" d="" stroke="none" fill="#dc100bc" fill-rule="evenodd"></path><path id="path3" d="" stroke="none" fill="#dc100bc" fill-rule="evenodd"></path><path id="path4" d="" stroke="none" fill="#dc100bc" fill-rule="evenodd"></path></g></svg>